<svg width="26" height="21" viewBox="0 0 26 21" fill="none" xmlns="http://www.w3.org/2000/svg">
<path d="M5.26172 5.66587C5.26172 5.46185 5.34403 5.2662 5.49054 5.12194C5.63705 4.97768 5.83577 4.89663 6.04297 4.89663H16.9805C17.1877 4.89663 17.3864 4.97768 17.5329 5.12194C17.6794 5.2662 17.7617 5.46185 17.7617 5.66587C17.7617 5.86988 17.6794 6.06554 17.5329 6.20979C17.3864 6.35405 17.1877 6.4351 16.9805 6.4351H6.04297C5.83577 6.4351 5.63705 6.35405 5.49054 6.20979C5.34403 6.06554 5.26172 5.86988 5.26172 5.66587ZM13.8555 9.51202C13.6483 9.51202 13.4496 9.59306 13.303 9.73732C13.1565 9.88158 13.0742 10.0772 13.0742 10.2812C13.0742 10.4853 13.1565 10.6809 13.303 10.8252C13.4496 10.9694 13.6483 11.0505 13.8555 11.0505H16.9805C17.1877 11.0505 17.3864 10.9694 17.5329 10.8252C17.6794 10.6809 17.7617 10.4853 17.7617 10.2812C17.7617 10.0772 17.6794 9.88158 17.5329 9.73732C17.3864 9.59306 17.1877 9.51202 16.9805 9.51202H13.8555ZM13.0742 14.8966C13.0742 14.6926 13.1565 14.497 13.303 14.3527C13.4496 14.2084 13.6483 14.1274 13.8555 14.1274H16.9805C17.1877 14.1274 17.3864 14.2084 17.5329 14.3527C17.6794 14.497 17.7617 14.6926 17.7617 14.8966C17.7617 15.1006 17.6794 15.2963 17.5329 15.4406C17.3864 15.5848 17.1877 15.6659 16.9805 15.6659H13.8555C13.6483 15.6659 13.4496 15.5848 13.303 15.4406C13.1565 15.2963 13.0742 15.1006 13.0742 14.8966ZM6.04297 9.51202C5.83577 9.51202 5.63705 9.59306 5.49054 9.73732C5.34403 9.88158 5.26172 10.0772 5.26172 10.2812V14.8966C5.26172 15.1006 5.34403 15.2963 5.49054 15.4406C5.63705 15.5848 5.83577 15.6659 6.04297 15.6659H10.7305C10.9377 15.6659 11.1364 15.5848 11.2829 15.4406C11.4294 15.2963 11.5117 15.1006 11.5117 14.8966V10.2812C11.5117 10.0772 11.4294 9.88158 11.2829 9.73732C11.1364 9.59306 10.9377 9.51202 10.7305 9.51202H6.04297ZM6.82422 14.1274V11.0505H9.94922V14.1274H6.82422ZM0.574219 3.35817C0.574219 2.54212 0.903459 1.75949 1.48951 1.18246C2.07556 0.605425 2.87042 0.28125 3.69922 0.28125H19.3242C20.153 0.28125 20.9479 0.605425 21.5339 1.18246C22.12 1.75949 22.4492 2.54212 22.4492 3.35817V4.89663C23.278 4.89663 24.0729 5.22081 24.6589 5.79784C25.245 6.37488 25.5742 7.15751 25.5742 7.97356V16.4351C25.5742 17.4552 25.1627 18.4334 24.4301 19.1547C23.6975 19.876 22.704 20.2812 21.668 20.2812H4.48047C3.44447 20.2812 2.4509 19.876 1.71833 19.1547C0.985769 18.4334 0.574219 17.4552 0.574219 16.4351V3.35817ZM20.8867 3.35817C20.8867 2.95015 20.7221 2.55883 20.4291 2.27032C20.136 1.9818 19.7386 1.81971 19.3242 1.81971H3.69922C3.28482 1.81971 2.88739 1.9818 2.59436 2.27032C2.30134 2.55883 2.13672 2.95015 2.13672 3.35817V16.4351C2.13672 17.0471 2.38365 17.6341 2.82319 18.0669C3.26273 18.4997 3.85887 18.7428 4.48047 18.7428H21.668C22.2896 18.7428 22.8857 18.4997 23.3252 18.0669C23.7648 17.6341 24.0117 17.0471 24.0117 16.4351V7.97356C24.0117 7.56553 23.8471 7.17422 23.5541 6.8857C23.261 6.59718 22.8636 6.4351 22.4492 6.4351V16.4351C22.4492 16.6391 22.3669 16.8348 22.2204 16.979C22.0739 17.1233 21.8752 17.2043 21.668 17.2043C21.4608 17.2043 21.2621 17.1233 21.1155 16.979C20.969 16.8348 20.8867 16.6391 20.8867 16.4351V3.35817Z" fill="#6D8493"/>
</svg>
