<svg width="21" height="19" viewBox="0 0 21 19" fill="none" xmlns="http://www.w3.org/2000/svg">
<path d="M1.57422 1.03125H4.81269L6.98246 11.872C7.05649 12.2448 7.25927 12.5796 7.5553 12.8179C7.85133 13.0562 8.22174 13.1828 8.60169 13.1755H16.4712C16.8511 13.1828 17.2215 13.0562 17.5176 12.8179C17.8136 12.5796 18.0164 12.2448 18.0904 11.872L19.3858 5.07933H5.6223M8.86077 17.2236C8.86077 17.6707 8.49829 18.0332 8.05115 18.0332C7.60401 18.0332 7.24154 17.6707 7.24154 17.2236C7.24154 16.7764 7.60401 16.414 8.05115 16.414C8.49829 16.414 8.86077 16.7764 8.86077 17.2236ZM17.7666 17.2236C17.7666 17.6707 17.4041 18.0332 16.9569 18.0332C16.5098 18.0332 16.1473 17.6707 16.1473 17.2236C16.1473 16.7764 16.5098 16.414 16.9569 16.414C17.4041 16.414 17.7666 16.7764 17.7666 17.2236Z" stroke="#444750" stroke-width="1.5" stroke-linecap="round" stroke-linejoin="round"/>
</svg>
