<svg width="20" height="21" viewBox="0 0 20 21" fill="none" xmlns="http://www.w3.org/2000/svg">
<path d="M9.05972 1.38799L9.10028 1.3555C9.38091 1.14524 9.72229 1.03125 10.0735 1.03125C10.4424 1.03125 10.8004 1.15697 11.0886 1.38789L11.0887 1.38799L18.2137 7.09463L18.6826 6.50924L18.2137 7.09463C18.5992 7.40332 18.8242 7.87138 18.8242 8.36661V17.9035C18.8242 18.3354 18.6528 18.7495 18.3479 19.0547C18.043 19.36 17.6298 19.5312 17.1992 19.5312H12.4492C12.3784 19.5312 12.3104 19.5031 12.2602 19.4528L12.26 19.4526C12.2098 19.4024 12.1814 19.3339 12.1814 19.2622V12.1289V11.3789H11.4314H8.71708H7.96708V12.1289V19.2622C7.96708 19.3339 7.93861 19.4024 7.88841 19.4526L7.88822 19.4528C7.83799 19.5031 7.77001 19.5312 7.69922 19.5312H2.94922C2.51855 19.5312 2.10531 19.36 1.80048 19.0548C1.49562 18.7495 1.32422 18.3354 1.32422 17.9035V8.36526C1.32422 7.87161 1.5491 7.40347 1.93471 7.09463L1.93472 7.09463L9.05972 1.38799Z" stroke="#6D8493" stroke-width="1.5"/>
</svg>
