<svg width="154" height="57" viewBox="0 0 154 57" fill="none" xmlns="http://www.w3.org/2000/svg">
<path fill-rule="evenodd" clip-rule="evenodd" d="M22.207 17.9783C22.3158 18.1361 22.3179 18.3442 22.2122 18.5041L9.43007 37.846C9.36126 37.9501 9.43593 38.0889 9.56071 38.0889H35.1292C35.2886 38.0889 35.4372 38.1698 35.5237 38.3037L36.5608 39.9085C36.7628 40.2211 36.5384 40.6333 36.1662 40.6333H6.90429C6.4358 40.6333 6.00514 40.3763 5.78304 39.9642C5.56095 39.5521 5.5833 39.0514 5.84122 38.6607L20.4375 16.5498C20.621 16.2719 21.0273 16.2678 21.2163 16.5419L22.207 17.9783ZM23.6435 21.4368C23.8256 21.1489 24.2441 21.1444 24.4322 21.4285L32.6312 33.8062C32.838 34.1185 32.6141 34.5354 32.2395 34.5354H30.2797C30.1219 34.5354 29.9746 34.4562 29.8876 34.3245L27.2331 30.3033C27.1462 30.1716 26.9989 30.0924 26.8411 30.0924H18.7252C18.3496 30.0924 18.1259 29.6735 18.3347 29.3614L19.4081 27.7566C19.4953 27.6263 19.6418 27.548 19.7986 27.548H25.1232C25.248 27.548 25.3227 27.4092 25.2539 27.3051L22.7034 23.4414C22.6016 23.2872 22.5996 23.0877 22.6984 22.9315L23.6435 21.4368Z" fill="black"/>
<path d="M146.562 23.1868H151.668C152.364 23.1868 152.928 23.751 152.928 24.447C152.928 25.143 152.364 25.7072 151.668 25.7072H146.562V33.4624C146.562 34.3026 146.627 35.0027 146.756 35.5628C146.885 36.1013 147.079 36.5322 147.338 36.8553C147.596 37.1569 147.919 37.3723 148.307 37.5016C148.695 37.6308 149.147 37.6954 149.664 37.6954C150.569 37.6954 151.291 37.5985 151.829 37.4046C152.442 37.1689 153.127 37.5282 153.277 38.1676L153.339 38.4344C153.477 39.0242 153.186 39.6214 152.609 39.8045C152.423 39.8633 152.217 39.925 151.991 39.9897C151.237 40.2267 150.375 40.3451 149.406 40.3451C148.264 40.3451 147.316 40.2051 146.562 39.9251C145.83 39.6235 145.237 39.1819 144.785 38.6002C144.333 38.0186 144.01 37.3077 143.816 36.4675C143.643 35.6059 143.557 34.6149 143.557 33.4947V19.7675C143.557 19.036 144.084 18.4107 144.805 18.2867C145.723 18.1287 146.562 18.8358 146.562 19.7675V23.1868Z" fill="black"/>
<path d="M138.783 22.8281C139.041 22.8281 139.332 22.8497 139.655 22.8928C140 22.9143 140.334 22.9574 140.657 23.022C140.98 23.0651 141.271 23.1189 141.529 23.1836C141.884 23.2382 142.091 23.5768 142.022 23.9289L141.865 24.7221C141.74 25.3571 141.066 25.7616 140.431 25.6394C139.892 25.5101 139.192 25.4455 138.33 25.4455C137.77 25.4455 137.21 25.5101 136.65 25.6394C136.112 25.7471 135.756 25.8225 135.584 25.8656V38.4839C135.584 39.3137 134.911 39.9865 134.081 39.9865C133.251 39.9865 132.579 39.3137 132.579 38.4839V26.131C132.579 24.7883 133.419 23.5812 134.73 23.2897C134.892 23.2537 135.058 23.2184 135.228 23.1836C136.284 22.9466 137.469 22.8281 138.783 22.8281Z" fill="black"/>
<path d="M128.717 39.9868C128.045 39.9868 127.441 39.5709 127.209 38.9398C126.986 38.3322 126.771 37.7334 126.566 37.1433C126.242 36.1954 125.909 35.2368 125.564 34.2674H115.418L113.744 38.9699C113.527 39.5796 112.95 39.9868 112.302 39.9868C111.241 39.9868 110.502 38.9317 110.868 37.935C111.452 36.3415 112.01 34.8389 112.542 33.4272C113.296 31.4023 114.028 29.485 114.739 27.6755C115.471 25.8659 116.193 24.1426 116.904 22.5054C117.425 21.2899 117.963 20.086 118.519 18.8936C118.89 18.097 119.693 17.5938 120.571 17.5938C121.45 17.5938 122.253 18.097 122.624 18.8936C123.18 20.086 123.718 21.2899 124.239 22.5054C124.95 24.1426 125.661 25.8659 126.372 27.6755C127.104 29.485 127.847 31.4023 128.601 33.4272C129.12 34.8046 129.664 36.2686 130.233 37.8191C130.619 38.8722 129.839 39.9868 128.717 39.9868ZM124.659 31.6823C123.97 29.8082 123.28 27.9986 122.591 26.2537C121.923 24.4872 121.223 22.7962 120.491 21.1805C119.737 22.7962 119.015 24.4872 118.326 26.2537C117.658 27.9986 116.99 29.8082 116.322 31.6823H124.659Z" fill="black"/>
<path d="M94.2988 31.6116C94.2988 30.1252 94.5142 28.8327 94.9451 27.7341C95.3759 26.6139 95.9468 25.6875 96.6577 24.9551C97.3686 24.2227 98.1872 23.6734 99.1135 23.3071C100.04 22.9409 100.988 22.7578 101.957 22.7578C104.219 22.7578 105.953 23.4687 107.159 24.8905C108.366 26.2907 108.969 28.4342 108.969 31.3208C108.969 31.4501 108.969 31.6224 108.969 31.8378C108.969 32.1524 108.701 32.3872 108.386 32.3872H97.4332C97.5625 34.1321 98.0687 35.4569 98.9519 36.3617C99.8352 37.2665 101.214 37.7188 103.088 37.7188C104.144 37.7188 105.027 37.6327 105.738 37.4603C105.766 37.4529 105.794 37.4455 105.821 37.4381C106.622 37.2228 107.521 37.7232 107.657 38.5416C107.746 39.073 107.48 39.5974 106.965 39.7556C106.658 39.8499 106.292 39.9465 105.867 40.0454C104.962 40.2608 103.928 40.3685 102.765 40.3685C101.3 40.3685 100.029 40.1531 98.9519 39.7223C97.8964 39.2699 97.0239 38.6559 96.3346 37.8804C95.6452 37.1049 95.1282 36.1893 94.7835 35.1338C94.4604 34.0567 94.2988 32.8826 94.2988 31.6116ZM105.835 29.9637C105.856 28.6065 105.512 27.4971 104.801 26.6354C104.111 25.7522 103.153 25.3106 101.925 25.3106C101.235 25.3106 100.621 25.4506 100.083 25.7306C99.5659 25.9891 99.1243 26.3338 98.7581 26.7647C98.3918 27.1955 98.101 27.691 97.8856 28.2511C97.6917 28.8112 97.5625 29.382 97.4978 29.9637H105.835Z" fill="black"/>
<path d="M77.9727 23.6683C78.662 23.4959 79.5775 23.3128 80.7193 23.1189C81.861 22.9251 83.1751 22.8281 84.6615 22.8281C85.9971 22.8281 87.1065 23.022 87.9898 23.4098C88.873 23.776 89.5731 24.3038 90.0901 24.9931C90.6287 25.6609 91.0057 26.4687 91.2211 27.4166C91.4365 28.3645 91.5442 29.4093 91.5442 30.551V38.4839C91.5442 39.3137 90.8715 39.9865 90.0417 39.9865C89.2118 39.9865 88.5391 39.3137 88.5391 38.4839V31.1973C88.5391 30.1632 88.4637 29.28 88.3129 28.5476C88.1836 27.8151 87.9574 27.2227 87.6343 26.7703C87.3112 26.318 86.8803 25.9948 86.3418 25.8009C85.8032 25.5855 85.1354 25.4778 84.3384 25.4778C84.0152 25.4778 83.6813 25.4886 83.3367 25.5101C82.992 25.5317 82.6581 25.564 82.3349 25.6071C82.0334 25.6286 81.7533 25.6609 81.4948 25.704C81.2578 25.7471 81.0855 25.7794 80.9778 25.8009V38.4839C80.9778 39.3137 80.3051 39.9865 79.4752 39.9865C78.6454 39.9865 77.9727 39.3137 77.9727 38.4839V23.6683Z" fill="black"/>
<path d="M74.0977 38.4831C74.0977 39.3129 73.4249 39.9857 72.5951 39.9857C71.7652 39.9857 71.0925 39.3129 71.0925 38.4831V24.6854C71.0925 23.8555 71.7652 23.1828 72.5951 23.1828C73.4249 23.1828 74.0977 23.8555 74.0977 24.6854V38.4831ZM72.5789 20.1453C72.0404 20.1453 71.5772 19.973 71.1895 19.6283C70.8232 19.2621 70.6401 18.7774 70.6401 18.1742C70.6401 17.5711 70.8232 17.0971 71.1895 16.7525C71.5772 16.3862 72.0404 16.2031 72.5789 16.2031C73.1175 16.2031 73.5699 16.3862 73.9361 16.7525C74.3238 17.0971 74.5177 17.5711 74.5177 18.1742C74.5177 18.7774 74.3238 19.2621 73.9361 19.6283C73.5699 19.973 73.1175 20.1453 72.5789 20.1453Z" fill="black"/>
<path d="M67.9402 37.2725C68.6898 37.2725 69.2974 37.8801 69.2974 38.6297C69.2974 39.3792 68.6898 39.9868 67.9402 39.9868H59.0158C57.2523 39.9868 55.8228 38.5572 55.8228 36.7938V19.1609C55.8228 18.2954 56.5244 17.5938 57.3899 17.5938C58.2555 17.5938 58.9571 18.2954 58.9571 19.1609V34.0795C58.9571 35.8429 60.3867 37.2725 62.1502 37.2725H67.9402Z" fill="black"/>
</svg>
