<svg width="21" height="21" viewBox="0 0 21 21" fill="none" xmlns="http://www.w3.org/2000/svg">
<path d="M10.9185 5.64844V8.42344" stroke="#444750" stroke-width="1.25" stroke-miterlimit="10" stroke-linecap="round"/>
<path d="M10.935 1.94531C7.86837 1.94531 5.38504 4.42865 5.38504 7.49531V9.24531C5.38504 9.81198 5.15171 10.662 4.86004 11.1453L3.80171 12.912C3.15171 14.0036 3.6017 15.2203 4.8017 15.6203C8.78504 16.9453 13.0934 16.9453 17.0767 15.6203C18.2017 15.2453 18.685 13.9286 18.0767 12.912L17.0184 11.1453C16.7267 10.662 16.4934 9.80365 16.4934 9.24531V7.49531C16.485 4.44531 13.985 1.94531 10.935 1.94531Z" stroke="#444750" stroke-width="1.25" stroke-miterlimit="10" stroke-linecap="round"/>
<path d="M13.6936 15.9688C13.6936 17.4937 12.4436 18.7437 10.9186 18.7437C10.1602 18.7437 9.46022 18.4271 8.96022 17.9271C8.46022 17.4271 8.14355 16.7271 8.14355 15.9688" stroke="#444750" stroke-width="1.25" stroke-miterlimit="10"/>
</svg>
