<svg width="18" height="19" viewBox="0 0 18 19" fill="none" xmlns="http://www.w3.org/2000/svg">
<mask id="mask0_261_5206" style="mask-type:luminance" maskUnits="userSpaceOnUse" x="0" y="0" width="18" height="19">
<path fill-rule="evenodd" clip-rule="evenodd" d="M0.918457 0.28125H17.6899V18.3017H0.918457V0.28125Z" fill="white"/>
</mask>
<g mask="url(#mask0_261_5206)">
<path fill-rule="evenodd" clip-rule="evenodd" d="M5.44301 13.7093C5.64216 13.7093 5.84132 13.7345 6.03612 13.7867C6.62402 13.945 7.13452 14.3381 7.43716 14.866C7.63371 15.1973 7.74241 15.5843 7.74589 15.9792C7.74589 16.5444 8.19986 16.9975 8.75819 16.9975H9.84789C10.4036 16.9975 10.8576 16.5471 10.8602 15.9913C10.8567 15.3774 11.0967 14.7938 11.5359 14.3546C11.969 13.9215 12.5743 13.6615 13.1796 13.6789C13.5762 13.6885 13.9579 13.7954 14.2945 13.9867C14.7789 14.2642 15.3972 14.0989 15.6773 13.6206L16.2547 12.6579C16.3835 12.4361 16.4208 12.1578 16.3521 11.9013C16.2843 11.6447 16.1139 11.4221 15.8843 11.2908C15.3468 10.9812 14.9633 10.482 14.8041 9.88365C14.6467 9.29662 14.7328 8.65567 15.0398 8.12779C15.2398 7.77992 15.5329 7.48684 15.8843 7.28508C16.3556 7.00939 16.5209 6.3928 16.2469 5.91274C16.2356 5.8936 16.2252 5.8736 16.2165 5.85273L15.7068 4.96915C15.4294 4.48648 14.812 4.32037 14.3276 4.59606C13.804 4.90566 13.1813 4.99437 12.583 4.83696C11.9855 4.68216 11.4846 4.30385 11.1724 3.76987C10.9724 3.43592 10.8637 3.04718 10.8602 2.65148C10.868 2.35405 10.7636 2.08706 10.5741 1.89139C10.3853 1.69658 10.1201 1.58613 9.84789 1.58613H8.75819C8.48859 1.58613 8.23639 1.69136 8.04593 1.88095C7.85634 2.07141 7.75285 2.32448 7.75459 2.59408C7.73633 3.86554 6.69707 4.88914 5.43866 4.88914C5.03513 4.88479 4.64639 4.77608 4.30896 4.57432C3.83499 4.30472 3.21579 4.47083 2.93836 4.95349L2.34959 5.92143C2.08 6.38932 2.24523 7.00765 2.72529 7.28682C3.43755 7.69904 3.88195 8.46783 3.88195 9.29227C3.88195 10.1167 3.43755 10.8846 2.72355 11.2977C2.2461 11.5743 2.08087 12.1891 2.35742 12.6675L2.90618 13.6137C3.04185 13.858 3.26362 14.0346 3.52017 14.1068C3.77585 14.1781 4.05763 14.1476 4.29244 14.0172C4.63769 13.8146 5.03948 13.7093 5.44301 13.7093ZM9.84763 18.3017H8.75794C7.48039 18.3017 6.44114 17.2633 6.44114 15.9857C6.4394 15.8283 6.39418 15.6648 6.30982 15.5231C6.17328 15.2848 5.95238 15.1143 5.69757 15.0465C5.4445 14.9787 5.16707 15.0161 4.93922 15.1483C4.39306 15.4526 3.75038 15.5266 3.16248 15.3613C2.57546 15.1952 2.06844 14.7917 1.77101 14.2568L1.22747 13.3202C0.591739 12.2175 0.970046 10.8043 2.07105 10.1677C2.38326 9.98763 2.5772 9.65194 2.5772 9.2919C2.5772 8.93185 2.38326 8.59529 2.07105 8.41527C0.969176 7.77519 0.591739 6.3585 1.2266 5.25576L1.81623 4.28782C2.44327 3.19725 3.86083 2.81286 4.96618 3.44772C5.11663 3.53729 5.28013 3.58252 5.44624 3.58425C5.98804 3.58425 6.44114 3.13724 6.44983 2.58761C6.44635 1.98145 6.68551 1.39965 7.12122 0.960462C7.55866 0.522148 8.1396 0.28125 8.75794 0.28125H9.84763C10.4703 0.28125 11.0756 0.536933 11.5096 0.981334C11.9427 1.42834 12.1818 2.04146 12.1636 2.66328C12.1653 2.80329 12.2114 2.96505 12.2949 3.10681C12.4332 3.34162 12.6514 3.50685 12.9106 3.57469C13.1698 3.63904 13.4411 3.60426 13.6716 3.46772C14.7847 2.83199 16.2014 3.21291 16.8372 4.31739L17.379 5.25576C17.3929 5.28098 17.4051 5.30533 17.4155 5.33055C17.9912 6.41851 17.6068 7.78824 16.5371 8.41353C16.3815 8.50311 16.2554 8.62834 16.1684 8.77966C16.0336 9.0136 15.9962 9.2919 16.064 9.54758C16.1336 9.80848 16.2997 10.025 16.5337 10.159C17.0615 10.4625 17.4555 10.9738 17.6129 11.5643C17.7703 12.154 17.6842 12.7941 17.3772 13.3219L16.7998 14.2838C16.164 15.3761 14.7474 15.7544 13.6455 15.1178C13.4985 15.0335 13.3289 14.9874 13.1602 14.983H13.155C12.9037 14.983 12.6454 15.09 12.4575 15.277C12.2671 15.4674 12.1627 15.7214 12.1644 15.991C12.1583 17.2685 11.1191 18.3017 9.84763 18.3017Z" fill="#444750"/>
</g>
<path fill-rule="evenodd" clip-rule="evenodd" d="M9.30637 7.6486C8.40192 7.6486 7.66618 8.38521 7.66618 9.28966C7.66618 10.1941 8.40192 10.929 9.30637 10.929C10.2108 10.929 10.9466 10.1941 10.9466 9.28966C10.9466 8.38521 10.2108 7.6486 9.30637 7.6486ZM9.30603 12.2332C7.68236 12.2332 6.36133 10.913 6.36133 9.28932C6.36133 7.66565 7.68236 6.34375 9.30603 6.34375C10.9297 6.34375 12.2507 7.66565 12.2507 9.28932C12.2507 10.913 10.9297 12.2332 9.30603 12.2332Z" fill="#444750"/>
</svg>
