<svg width="25" height="25" viewBox="0 0 25 25" fill="none" xmlns="http://www.w3.org/2000/svg">
<path d="M20.3442 14.0312H16.3042C14.2942 14.0312 13.3242 13.1012 13.3242 11.1812V4.38125C13.3242 2.46125 14.3042 1.53125 16.3042 1.53125H20.3442C22.3542 1.53125 23.3242 2.46125 23.3242 4.38125V11.1812C23.3242 13.1012 22.3442 14.0312 20.3442 14.0312ZM16.3042 3.03125C15.0342 3.03125 14.8242 3.37125 14.8242 4.38125V11.1812C14.8242 12.1912 15.0342 12.5312 16.3042 12.5312H20.3442C21.6142 12.5312 21.8242 12.1912 21.8242 11.1812V4.38125C21.8242 3.37125 21.6142 3.03125 20.3442 3.03125H16.3042Z" fill="#28353D"/>
<path d="M20.3442 23.0312H16.3042C14.2942 23.0312 13.3242 22.1012 13.3242 20.1812V18.3813C13.3242 16.4613 14.3042 15.5312 16.3042 15.5312H20.3442C22.3542 15.5312 23.3242 16.4613 23.3242 18.3813V20.1812C23.3242 22.1012 22.3442 23.0312 20.3442 23.0312ZM16.3042 17.0312C15.0342 17.0312 14.8242 17.3713 14.8242 18.3813V20.1812C14.8242 21.1912 15.0342 21.5312 16.3042 21.5312H20.3442C21.6142 21.5312 21.8242 21.1912 21.8242 20.1812V18.3813C21.8242 17.3713 21.6142 17.0312 20.3442 17.0312H16.3042Z" fill="#28353D"/>
<path d="M8.84422 23.0312H4.80422C2.79422 23.0312 1.82422 22.1012 1.82422 20.1812V13.3813C1.82422 11.4613 2.80422 10.5312 4.80422 10.5312H8.84422C10.8542 10.5312 11.8242 11.4613 11.8242 13.3813V20.1812C11.8242 22.1012 10.8442 23.0312 8.84422 23.0312ZM4.80422 12.0312C3.53422 12.0312 3.32422 12.3713 3.32422 13.3813V20.1812C3.32422 21.1912 3.53422 21.5312 4.80422 21.5312H8.84422C10.1142 21.5312 10.3242 21.1912 10.3242 20.1812V13.3813C10.3242 12.3713 10.1142 12.0312 8.84422 12.0312H4.80422Z" fill="#28353D"/>
<path d="M8.84422 9.03125H4.80422C2.79422 9.03125 1.82422 8.10125 1.82422 6.18125V4.38125C1.82422 2.46125 2.80422 1.53125 4.80422 1.53125H8.84422C10.8542 1.53125 11.8242 2.46125 11.8242 4.38125V6.18125C11.8242 8.10125 10.8442 9.03125 8.84422 9.03125ZM4.80422 3.03125C3.53422 3.03125 3.32422 3.37125 3.32422 4.38125V6.18125C3.32422 7.19125 3.53422 7.53125 4.80422 7.53125H8.84422C10.1142 7.53125 10.3242 7.19125 10.3242 6.18125V4.38125C10.3242 3.37125 10.1142 3.03125 8.84422 3.03125H4.80422Z" fill="#28353D"/>
</svg>
